<svg width="42" height="42" version="1.1" viewBox="0 0 11.112 11.112" xmlns="http://www.w3.org/2000/svg">
 <g transform="translate(0 -285.89)">
  <rect x="-9.5367e-8" y="285.89" width="11.112" height="11.112" style="paint-order:markers stroke fill"/>
 </g>
 <g fill="#fff" aria-label="42">
  <path transform="scale(.26458)" d="m30.121 9.4141c-2.2711 0-4.0867 0.64951-5.4473 1.9473-1.3501 1.2978-2.0254 2.9979-2.0254 5.1016h2.9043c0-1.4652 0.39796-2.6055 1.1934-3.4219 0.80587-0.8268 1.9307-1.2402 3.375-1.2402 1.2036 0 2.1665 0.38248 2.8887 1.1465s1.082 1.7424 1.082 2.9355c0 0.88959-0.2238 1.7526-0.67383 2.5898-0.43956 0.8268-1.2458 1.9052-2.418 3.2344l-7.9121 8.791v2.0879h14.977v-2.3711h-11.477l6.123-6.6406c2.8676-3.1083 4.3008-5.787 4.3008-8.0371 0-1.8524-0.6166-3.334-1.8516-4.4434-1.235-1.1198-2.9145-1.6797-5.0391-1.6797zm-15.949 0.31445-10.236 15.84v1.7109h10.408v5.3066h2.9199v-5.3066h3.1719v-2.3711h-3.1719v-15.18h-3.0918zm0.17188 3.9707v11.209h-7.1113l6.7656-10.58 0.3457-0.62891z" fill="#fff" stroke-width=".80377"/>
 </g>
</svg>
